<?xml version="1.0" encoding="UTF-8"?>
<svg width="1280px" height="1280px" viewBox="0 0 1280 1280" version="1.1" xmlns="http://www.w3.org/2000/svg" xmlns:xlink="http://www.w3.org/1999/xlink">
    <!-- Generator: Sketch 57.1 (83088) - https://sketch.com -->
    <title>Artboard</title>
    <desc>Created with Sketch.</desc>
    <g id="Artboard" stroke="none" stroke-width="1" fill="none" fill-rule="evenodd">
        <path d="M1152,1280 L1152,1015.71886 C1152.13166,981.736685 1064.57966,931.619199 929.967543,882.598856 C795.560229,833.563885 752.698514,792.23817 752.698514,703.983999 L752.698514,703.983999 C752.698514,651.116342 793.658514,668.202513 811.768685,571.112685 C819.126856,530.854856 855.303314,570.337371 862.398171,478.382171 C862.398171,441.898514 842.605714,432.624 842.605714,432.624 C842.605714,432.624 852.611657,378.220343 856.561371,336.499657 C861.359542,284.392686 826.4704,150 640.117028,150 C453.617371,150 418.611199,284.392686 423.584914,336.499657 C427.6224,378.234971 437.730743,432.624 437.730743,432.624 C437.730743,432.624 417.704229,441.766857 417.704229,478.382171 C424.7552,570.410514 460.975543,530.854857 468.392229,571.112685 C486.443886,668.246399 527.418515,651.101714 527.418515,703.983999 C527.418515,792.23817 484.586058,833.563885 350.134858,882.598856 C215.478857,931.619199 128,981.605028 128,1015.71886 L128,1280" id="Path" stroke="#FFFFFF" stroke-width="4" fill-opacity="0" fill="#000000" opacity="0.3" stroke-linecap="round" stroke-dasharray="1,1,1,9"></path>
        <path d="M1280,0 L1280,1280 L1152,1280 L1152,1015.71886 C1152.13166,981.736685 1064.57966,931.619199 929.967543,882.598856 C795.560229,833.563885 752.698514,792.23817 752.698514,703.983999 C752.698514,651.116342 793.658514,668.202513 811.768685,571.112685 C819.126856,530.854856 855.303314,570.337371 862.398171,478.382171 C862.398171,441.898514 842.605714,432.624 842.605714,432.624 C842.605714,432.624 852.611657,378.220343 856.561371,336.499657 C861.359542,284.392686 826.4704,150 640.117028,150 C453.617371,150 418.611199,284.392686 423.584914,336.499657 C427.6224,378.234971 437.730743,432.624 437.730743,432.624 C437.730743,432.624 417.704229,441.766857 417.704229,478.382171 C424.7552,570.410514 460.975543,530.854857 468.392229,571.112685 C486.443886,668.246399 527.418515,651.101714 527.418515,703.983999 C527.418515,792.23817 484.586058,833.563885 350.134858,882.598856 C215.478857,931.619199 128,981.605028 128,1015.71886 L128,1280 L0,1280 L0,0 L1280,0 Z" id="矩形-2" fill-opacity="0.05" fill="#000000"></path>
    </g>
</svg>